<svg xmlns="http://www.w3.org/2000/svg" viewBox="0 0 420 520" fill="none">
  <g stroke="white" stroke-linecap="round" stroke-linejoin="round" opacity="0.82">

    <!-- Main large lily, centre-right of cluster -->
    <g stroke-width="1.5">
      <!-- Petals -->
      <path d="M210 260 C195 230 172 210 148 195 C162 220 165 248 210 260Z"/>
      <path d="M210 260 C225 230 248 210 272 195 C258 220 255 248 210 260Z"/>
      <path d="M210 260 C180 250 158 235 142 215 C168 228 192 240 210 260Z"/>
      <path d="M210 260 C240 250 262 235 278 215 C252 228 228 240 210 260Z"/>
      <path d="M210 260 C195 240 188 215 192 188 C200 210 204 238 210 260Z"/>
      <path d="M210 260 C225 240 232 215 228 188 C220 210 216 238 210 260Z"/>
      <!-- Petal detail lines -->
      <path d="M210 258 C200 240 185 225 168 212" stroke-width="0.8" opacity="0.6"/>
      <path d="M210 258 C220 240 235 225 252 212" stroke-width="0.8" opacity="0.6"/>
      <path d="M210 258 C200 242 195 228 196 210" stroke-width="0.8" opacity="0.6"/>
      <!-- Stamens -->
      <line x1="210" y1="258" x2="196" y2="230" stroke-width="1"/>
      <circle cx="196" cy="228" r="2.5" fill="white" opacity="0.7"/>
      <line x1="210" y1="258" x2="218" y2="228" stroke-width="1"/>
      <circle cx="219" cy="226" r="2.5" fill="white" opacity="0.7"/>
      <line x1="210" y1="258" x2="208" y2="224" stroke-width="1"/>
      <circle cx="208" cy="222" r="2.5" fill="white" opacity="0.7"/>
      <line x1="210" y1="258" x2="202" y2="232" stroke-width="1"/>
      <circle cx="201" cy="230" r="2" fill="white" opacity="0.6"/>
      <line x1="210" y1="258" x2="222" y2="232" stroke-width="1"/>
      <circle cx="223" cy="230" r="2" fill="white" opacity="0.6"/>
      <!-- Stem -->
      <path d="M210 262 C208 290 204 320 200 355" stroke-width="1.8"/>
    </g>

    <!-- Upper-left lily, blooming outward -->
    <g stroke-width="1.4">
      <path d="M130 175 C110 148 82 132 54 122 C72 148 80 172 130 175Z"/>
      <path d="M130 175 C148 148 172 132 198 122 C180 148 168 172 130 175Z"/>
      <path d="M130 175 C102 168 80 152 66 130 C92 146 114 158 130 175Z"/>
      <path d="M130 175 C158 168 180 152 194 130 C168 146 146 158 130 175Z"/>
      <path d="M130 175 C118 156 112 132 116 106 C122 130 126 154 130 175Z"/>
      <path d="M130 175 C142 156 148 132 144 106 C138 130 134 154 130 175Z"/>
      <!-- Detail lines -->
      <path d="M130 173 C118 156 100 142 80 132" stroke-width="0.7" opacity="0.6"/>
      <path d="M130 173 C142 156 160 142 180 132" stroke-width="0.7" opacity="0.6"/>
      <!-- Stamens -->
      <line x1="130" y1="173" x2="116" y2="145" stroke-width="0.9"/>
      <circle cx="115" cy="143" r="2.2" fill="white" opacity="0.7"/>
      <line x1="130" y1="173" x2="136" y2="142" stroke-width="0.9"/>
      <circle cx="136" cy="140" r="2.2" fill="white" opacity="0.7"/>
      <line x1="130" y1="173" x2="144" y2="146" stroke-width="0.9"/>
      <circle cx="145" cy="144" r="2.2" fill="white" opacity="0.7"/>
      <!-- Stem connecting down -->
      <path d="M130 177 C148 200 175 228 200 258" stroke-width="1.6"/>
    </g>

    <!-- Bud, top area -->
    <g stroke-width="1.3">
      <path d="M72 95 C66 75 58 58 48 42 C56 60 62 78 72 95Z"/>
      <path d="M72 95 C82 75 90 58 100 42 C90 60 82 78 72 95Z"/>
      <path d="M72 95 C60 82 52 66 50 48 C62 66 68 82 72 95Z"/>
      <path d="M72 95 C84 82 92 66 94 48 C82 66 76 82 72 95Z"/>
      <!-- Sepal lines on bud -->
      <path d="M72 97 C68 88 62 80 54 72" stroke-width="0.7" opacity="0.6"/>
      <path d="M72 97 C76 88 82 80 90 72" stroke-width="0.7" opacity="0.6"/>
      <!-- Stem -->
      <path d="M72 98 C80 118 100 142 130 175" stroke-width="1.5"/>
    </g>

    <!-- Small tight bud, top-left -->
    <g stroke-width="1.2">
      <path d="M28 58 C22 42 18 26 16 8 C24 24 28 42 28 58Z"/>
      <path d="M28 58 C36 42 40 26 42 8 C34 24 30 42 28 58Z"/>
      <path d="M28 60 C20 52 14 42 12 30 C22 42 26 52 28 60Z"/>
      <path d="M28 60 C36 52 42 42 44 30 C34 42 30 52 28 60Z"/>
      <path d="M28 60 C36 115 72 135 72 95" stroke-width="1.4"/>
    </g>

    <!-- Leaves along stems -->
    <g stroke-width="1.3" opacity="0.85">
      <path d="M200 258 C186 248 168 244 148 246 C166 250 184 252 200 258Z"/>
      <path d="M186 278 C172 264 152 258 130 258 C150 264 170 270 186 278Z"/>
      <path d="M148 195 C136 178 118 170 96 170 C116 174 136 182 148 195Z"/>
      <path d="M160 215 C144 202 124 196 102 196 C122 200 144 208 160 215Z"/>
      <path d="M72 98 C56 88 36 86 14 90 C34 90 56 92 72 98Z"/>
      <path d="M88 130 C72 118 52 114 30 116 C50 118 72 122 88 130Z"/>
      <path d="M130 177 C112 164 90 158 66 160 C88 162 112 168 130 177Z"/>
    </g>

    <!-- Extra bud hanging right -->
    <g stroke-width="1.2" opacity="0.9">
      <path d="M260 200 C272 180 282 158 286 134 C278 156 268 178 260 200Z"/>
      <path d="M260 200 C248 180 238 158 234 134 C242 156 252 178 260 200Z"/>
      <path d="M260 202 C274 190 284 174 288 156 C276 172 266 188 260 202Z"/>
      <path d="M260 202 C246 190 236 174 232 156 C244 172 254 188 260 202Z"/>
      <path d="M260 204 C248 240 232 268 210 260" stroke-width="1.4"/>
      <path d="M260 204 C270 192 282 178 288 162 C276 176 266 190 260 204Z"/>
      <!-- Leaf -->
      <path d="M268 220 C280 210 294 208 308 212 C294 214 280 216 268 220Z"/>
    </g>

    <!-- Scattered small dots / pollen -->
    <circle cx="170" cy="195" r="1.5" fill="white" opacity="0.5"/>
    <circle cx="250" cy="185" r="1.2" fill="white" opacity="0.4"/>
    <circle cx="90" cy="110" r="1.3" fill="white" opacity="0.4"/>
    <circle cx="185" cy="240" r="1" fill="white" opacity="0.35"/>

  </g>
</svg>
